<svg viewBox="0 0 168 70" height="125" width="300" xmlns:xlink="http://www.w3.org/1999/xlink" xmlns="http://www.w3.org/2000/svg">
  <defs>
    <clipPath id="clip-path">
      <rect fill="none" height="37.104" width="168" data-name="Rectangle 4" id="Rectangle_4"></rect>
    </clipPath>
    <clipPath id="clip-Logo_kleur">
      <rect height="70" width="168"></rect>
    </clipPath>
  </defs>
  <g clip-path="url(#clip-Logo_kleur)" data-name="Logo kleur" id="Logo_kleur">
    <g transform="translate(0 16)" data-name="Group 2" id="Group_2">
      <g clip-path="url(#clip-path)" data-name="Group 1" id="Group_1">
        <path fill="#5d5d5c" transform="translate(-1.116 -64.928)" d="M5.789,96.575v3.6H4.78V97.361H3.315v2.814H2.305V97.361H1.627v-.786h.678v-.262a1.484,1.484,0,0,1,1.58-1.7h.239v.94H3.978c-.5,0-.663.27-.663.648v.37ZM4.641,95.334a.621.621,0,0,1,.64-.6.606.606,0,1,1,0,1.21.627.627,0,0,1-.64-.609" data-name="Path 1" id="Path_1"></path>
        <path fill="#5d5d5c" transform="translate(-12.445 -69.008)" d="M21.651,102.281v1.973h-1.01v-1.919c0-.563-.339-.817-.686-.817a.766.766,0,0,0-.809.848v1.888h-1.01v-3.6h1.01v.586a1.189,1.189,0,0,1,1.079-.678c.94,0,1.434.64,1.426,1.719" data-name="Path 2" id="Path_2"></path>
        <path fill="#5d5d5c" transform="translate(-21.785 -69.008)" d="M35.509,102.782H32.8a.881.881,0,0,0,.925.671,1.285,1.285,0,0,0,.948-.424l.586.594a2.012,2.012,0,0,1-1.6.725,1.893,1.893,0,1,1-.008-3.785,1.8,1.8,0,0,1,1.873,1.835c0,.1-.008.223-.023.385m-.994-.655a.767.767,0,0,0-.832-.694.837.837,0,0,0-.879.694Z" data-name="Path 3" id="Path_3"></path>
        <path fill="#5d5d5c" transform="translate(-31.277 -69.008)" d="M45.578,103.121h.948a.471.471,0,0,0,.532.432c.293,0,.516-.147.516-.355,0-.154-.124-.231-.393-.3l-.478-.116c-.925-.247-1.048-.763-1.048-1.141a1.273,1.273,0,0,1,1.41-1.079c.655,0,1.426.316,1.418,1.172H47.52a.39.39,0,0,0-.439-.377c-.232,0-.416.131-.416.316,0,.17.154.254.355.308l.593.154c.864.231.971.771.971,1.064,0,.755-.771,1.148-1.511,1.148a1.349,1.349,0,0,1-1.5-1.226" data-name="Path 4" id="Path_4"></path>
        <path fill="#5d5d5c" transform="translate(-38.913 -66.344)" d="M59.135,97.991v.786h-.763v2.814h-1.01V98.778h-.655v-.786h.655v-1.31h1.01v1.31Z" data-name="Path 5" id="Path_5"></path>
        <path fill="#5d5d5c" transform="translate(-49.669 -69.008)" d="M76.312,102.452a1.793,1.793,0,0,1-1.765,1.9,1.43,1.43,0,0,1-1.156-.54v2.212h-1.01v-5.365h1.01v.44a1.445,1.445,0,0,1,1.156-.532,1.8,1.8,0,0,1,1.765,1.889m-1.033.008a.929.929,0,1,0-1.858,0,.954.954,0,0,0,.933.948.933.933,0,0,0,.925-.948" data-name="Path 6" id="Path_6"></path>
        <path fill="#5d5d5c" transform="translate(-60.021 -69.008)" d="M90.095,100.678l-.231.964a1.047,1.047,0,0,0-.516-.131c-.516,0-.871.486-.871,1.511v1.233h-1.01v-3.6h1v.771a1.106,1.106,0,0,1,1.056-.864,1.283,1.283,0,0,1,.57.116" data-name="Path 7" id="Path_7"></path>
        <path fill="#5d5d5c" transform="translate(-66.462 -69.008)" d="M96.852,102.459a1.935,1.935,0,1,1,1.935,1.889,1.883,1.883,0,0,1-1.935-1.889m2.844,0a.91.91,0,1,0-.91.948.913.913,0,0,0,.91-.948" data-name="Path 8" id="Path_8"></path>
        <path fill="#5d5d5c" transform="translate(-75.954 -64.928)" d="M113.143,95.557a.675.675,0,0,0-.771.748v.27h.786v.786h-.786v2.813h-1.01V97.361h-.678v-.786h.678v-.262a1.483,1.483,0,0,1,1.58-1.7h.432v.94Z" data-name="Path 9" id="Path_9"></path>
        <path fill="#5d5d5c" transform="translate(-82.326 -69.008)" d="M123.732,102.782h-2.706a.881.881,0,0,0,.925.671,1.285,1.285,0,0,0,.948-.424l.586.594a2.012,2.012,0,0,1-1.6.725,1.893,1.893,0,1,1-.008-3.785,1.8,1.8,0,0,1,1.873,1.835c0,.1-.008.223-.023.385m-.994-.655a.767.767,0,0,0-.832-.694.837.837,0,0,0-.879.694Z" data-name="Path 10" id="Path_10"></path>
        <path fill="#5d5d5c" transform="translate(-91.818 -69.008)" d="M133.8,103.121h.948a.471.471,0,0,0,.532.432c.293,0,.516-.147.516-.355,0-.154-.124-.231-.393-.3l-.478-.116c-.925-.247-1.048-.763-1.048-1.141a1.273,1.273,0,0,1,1.41-1.079c.655,0,1.426.316,1.418,1.172h-.964a.39.39,0,0,0-.439-.377c-.232,0-.416.131-.416.316,0,.17.154.254.355.308l.593.154c.864.231.971.771.971,1.064,0,.755-.771,1.148-1.511,1.148a1.349,1.349,0,0,1-1.5-1.226" data-name="Path 11" id="Path_11"></path>
        <path fill="#5d5d5c" transform="translate(-99.64 -69.008)" d="M145.2,103.121h.948a.471.471,0,0,0,.532.432c.293,0,.516-.147.516-.355,0-.154-.124-.231-.393-.3l-.478-.116c-.925-.247-1.048-.763-1.048-1.141a1.273,1.273,0,0,1,1.41-1.079c.655,0,1.426.316,1.418,1.172h-.964a.39.39,0,0,0-.439-.377c-.232,0-.416.131-.416.316,0,.17.154.254.355.308l.593.154c.864.231.971.771.971,1.064,0,.755-.771,1.148-1.511,1.148a1.349,1.349,0,0,1-1.5-1.226" data-name="Path 12" id="Path_12"></path>
        <path fill="#5d5d5c" transform="translate(-107.648 -65.181)" d="M156.871,95.587a.641.641,0,1,1,.64.609.621.621,0,0,1-.64-.609m.139,1.241h1.01v3.6h-1.01Z" data-name="Path 13" id="Path_13"></path>
        <path fill="#5d5d5c" transform="translate(-111.896 -69.008)" d="M163.061,102.459A1.935,1.935,0,1,1,165,104.348a1.883,1.883,0,0,1-1.935-1.889m2.844,0a.91.91,0,1,0-.91.948.913.913,0,0,0,.91-.948" data-name="Path 14" id="Path_14"></path>
        <path fill="#5d5d5c" transform="translate(-122.096 -69.008)" d="M181.44,102.281v1.973h-1.01v-1.919c0-.563-.339-.817-.686-.817a.766.766,0,0,0-.809.848v1.888h-1.01v-3.6h1.01v.586a1.189,1.189,0,0,1,1.079-.678c.94,0,1.434.64,1.426,1.719" data-name="Path 15" id="Path_15"></path>
        <path fill="#5d5d5c" transform="translate(-131.436 -69.008)" d="M194.457,100.655h1.01v3.6h-1.01v-.516a1.425,1.425,0,0,1-1.187.609,1.9,1.9,0,0,1,.023-3.785,1.38,1.38,0,0,1,1.164.57Zm-.031,1.8a.947.947,0,0,0-.94-.956.953.953,0,0,0,.008,1.9.949.949,0,0,0,.933-.948" data-name="Path 16" id="Path_16"></path>
        <rect fill="#5d5d5c" transform="translate(65.049 29.689)" height="5.558" width="1.01" data-name="Rectangle 1" id="Rectangle_1"></rect>
        <path fill="#5d5d5c" transform="translate(-150.217 -69.008)" d="M218.9,102.443a1.89,1.89,0,0,1,1.973-1.881,1.823,1.823,0,0,1,1.518.771l-.763.532a.95.95,0,0,0-.748-.362.92.92,0,0,0-.956.941.934.934,0,0,0,.956.964.95.95,0,0,0,.748-.362l.763.532a1.823,1.823,0,0,1-1.518.771,1.908,1.908,0,0,1-1.973-1.9" data-name="Path 17" id="Path_17"></path>
        <rect fill="#5d5d5c" transform="translate(72.904 29.689)" height="5.558" width="1.01" data-name="Rectangle 2" id="Rectangle_2"></rect>
        <path fill="#5d5d5c" transform="translate(-163.383 -69.008)" d="M238.091,102.459a1.935,1.935,0,1,1,1.935,1.889,1.883,1.883,0,0,1-1.935-1.889m2.844,0a.91.91,0,1,0-.91.948.913.913,0,0,0,.91-.948" data-name="Path 18" id="Path_18"></path>
        <path fill="#5d5d5c" transform="translate(-172.908 -66.344)" d="M254.4,97.991v.786h-.763v2.814h-1.01V98.778h-.655v-.786h.655v-1.31h1.01v1.31Z" data-name="Path 19" id="Path_19"></path>
        <path fill="#5d5d5c" transform="translate(-179.652 -64.929)" d="M265.314,98.2v1.973H264.3V98.264c0-.563-.339-.825-.686-.825a.771.771,0,0,0-.809.848v1.888H261.8V94.618h1.01v2.528a1.171,1.171,0,0,1,1.079-.663c.94,0,1.434.64,1.426,1.719" data-name="Path 20" id="Path_20"></path>
        <path fill="#5d5d5c" transform="translate(-189.16 -65.181)" d="M275.655,95.587a.641.641,0,1,1,.64.609.621.621,0,0,1-.64-.609m.139,1.241h1.01v3.6h-1.01Z" data-name="Path 21" id="Path_21"></path>
        <path fill="#5d5d5c" transform="translate(-193.898 -69.008)" d="M286.074,102.281v1.973h-1.01v-1.919c0-.563-.339-.817-.686-.817a.766.766,0,0,0-.809.848v1.888h-1.01v-3.6h1.01v.586a1.189,1.189,0,0,1,1.079-.678c.94,0,1.434.64,1.426,1.719" data-name="Path 22" id="Path_22"></path>
        <path fill="#5d5d5c" transform="translate(-203.237 -69.008)" d="M299.09,100.655h1.01v3.153c0,1.572-.794,2.3-2.066,2.3a1.9,1.9,0,0,1-1.75-1.1l.84-.362a1.02,1.02,0,0,0,.909.563c.648,0,1.056-.362,1.056-1.3v-.1a1.49,1.49,0,0,1-1.156.532,1.9,1.9,0,0,1,0-3.785,1.472,1.472,0,0,1,1.156.524Zm-.031,1.8a.949.949,0,0,0-.933-.948.939.939,0,0,0-.933.948.933.933,0,1,0,1.865,0" data-name="Path 23" id="Path_23"></path>
        <path fill="#008acb" transform="translate(-83.052 -0.014)" d="M133.135,6.366c-5.118,0-6.55,1.141-7.72,2.369V.02h-4.387v22.2h4.065V20.139c1.141,1.258,2.983,2.34,8.042,2.34,8.071,0,9.066-2.135,9.066-8.393,0-5.966-.995-7.72-9.066-7.72m-.906,12.9c-4.357,0-6.346-.994-6.814-3.041v-3.89c.79-1.608,2.661-2.72,6.814-2.72,5.41,0,5.614.79,5.614,4.767,0,4.123-.263,4.883-5.614,4.883" data-name="Path 24" id="Path_24"></path>
        <path fill="#008acb" transform="translate(-37.683 -24.666)" d="M62.452,35.945c-5.945,0-7.538.846-7.538,5.441,0,4.313,1.189,5.663,7.538,5.663,6.368,0,7.154-1.27,7.356-3.648h-2.9c-.061,1.068-.524,1.491-4.454,1.491-3.99,0-4.434-.423-4.474-2.8H69.928c.02-.222.02-.443.02-.725,0-4.132-.806-5.421-7.5-5.421M57.977,40.5c.061-2.015.484-2.4,4.474-2.4,4.111,0,4.454.4,4.474,2.4Z" data-name="Path 25" id="Path_25"></path>
        <path fill="#008acb" transform="translate(0 -15.102)" d="M11.568,28.013c-.806-.847-1.794-1.633-5.32-1.633C.685,26.38,0,27.589,0,31.7c0,4.313.685,5.784,6.248,5.784,3.486,0,4.756-.746,5.542-1.612V37.3h2.8v-15.3H11.568Zm0,5.159c-.323,1.411-1.693,2.1-4.7,2.1C3.184,35.268,3,34.744,3,31.9c0-2.741.141-3.285,3.87-3.285,2.862,0,4.152.766,4.7,1.874Z" data-name="Path 26" id="Path_26"></path>
        <path fill="#008acb" transform="translate(-232.53 -0.013)" d="M360.262,6.657h-5.732l-6.521,5.205h-4.766V.019h-4.387v22.2h4.387V14.67H348.3l6.667,7.545h5.673l-8.48-9.154Z" data-name="Path 27" id="Path_27"></path>
        <rect fill="#008acb" transform="translate(155.199 0.006)" height="22.196" width="4.416" data-name="Rectangle 3" id="Rectangle_3"></rect>
        <path fill="#008acb" transform="translate(-283.391 -13.891)" d="M423.91,20.243c-8.627,0-10.937,1.228-10.937,7.9,0,6.258,1.725,8.217,10.937,8.217,9.241,0,10.382-1.842,10.674-5.293h-4.211c-.088,1.55-.76,2.164-6.463,2.164-5.79,0-6.433-.614-6.492-4.065h17.341c.029-.322.029-.643.029-1.052,0-6-1.169-7.867-10.878-7.867m-6.492,6.609c.088-2.925.7-3.48,6.492-3.48,5.966,0,6.463.585,6.492,3.48Z" data-name="Path 28" id="Path_28"></path>
        <path fill="#008acb" transform="translate(-136.279 -13.891)" d="M209.531,20.243c-8.627,0-10.937,1.228-10.937,7.9,0,6.258,1.725,8.217,10.937,8.217,9.241,0,10.382-1.842,10.674-5.293h-4.212c-.088,1.55-.76,2.164-6.463,2.164-5.79,0-6.433-.614-6.492-4.065H220.38c.03-.322.03-.643.03-1.052,0-6-1.17-7.867-10.879-7.867m-6.492,6.609c.088-2.925.7-3.48,6.492-3.48,5.966,0,6.463.585,6.492,3.48Z" data-name="Path 29" id="Path_29"></path>
        <path fill="#008acb" transform="translate(-192.303 -13.891)" d="M284.417,22.436v-1.9h-4.182V36.093h4.415V25.887c.994-1.375,2.837-2.222,7.135-2.222a16.368,16.368,0,0,1,4.007.468V20.448a23.32,23.32,0,0,0-3.393-.2c-4.24,0-6.726.994-7.983,2.193" data-name="Path 30" id="Path_30"></path>
        <path fill="#008acb" transform="translate(-353.479)" d="M518.31,0c-2.693,0-3.2.851-3.2,3.291s.506,3.291,3.2,3.291c2.552,0,3.169-.851,3.169-3.291S520.993,0,518.31,0m0,5.873c-2.217,0-2.491-.527-2.491-2.582S516.092.709,518.31.709s2.471.537,2.471,2.582-.263,2.582-2.471,2.582" data-name="Path 31" id="Path_31"></path>
        <path fill="#008acb" transform="translate(-358.24 -4.008)" d="M524.337,7.947c0-.375-.233-.5-.536-.527.354-.041.547-.253.547-.689v-.1c0-.628-.334-.79-1-.79h-1.3V8.808h.628V7.664h.7c.294,0,.334.132.334.344v.345a1.5,1.5,0,0,0,.061.456h.628a2.152,2.152,0,0,1-.061-.527Zm-.628-1.114c0,.212-.04.375-.334.375h-.7V6.327h.709c.274,0,.324.162.324.385Z" data-name="Path 32" id="Path_32"></path>
      </g>
    </g>
  </g>
</svg>